<svg viewBox="0 0 512 512" xmlns="http://www.w3.org/2000/svg">
  <rect x="20" y="20" width="472" height="472" rx="112" fill="#EAE9E3"/>
  <rect x="22" y="22" width="468" height="468" rx="110" fill="none" stroke="#D7D8D1" stroke-width="4"/>
  <g transform="translate(-4 -4) scale(5.2)" fill="none" stroke="#466551" stroke-width="6" stroke-linecap="round">
    <path d="M50 15 C70 15 85 30 85 50 C85 65 75 75 70 80 M50 15 C30 15 15 30 15 50 C15 65 25 75 30 80"/>
    <path d="M30 80 Q30 90 20 90"/>
    <path d="M43 77 Q43 90 38 90"/>
    <path d="M57 77 Q57 90 62 90"/>
    <path d="M70 80 Q70 90 80 90"/>
  </g>
</svg>
